<?xml version="1.0" standalone="no"?>
<!DOCTYPE svg PUBLIC "-//W3C//DTD SVG 20010904//EN"
 "http://www.w3.org/TR/2001/REC-SVG-20010904/DTD/svg10.dtd">
<svg version="1.0" xmlns="http://www.w3.org/2000/svg"
 width="512.000000pt" height="512.000000pt" viewBox="0 0 512.000000 512.000000"
 preserveAspectRatio="xMidYMid meet">
<metadata>
Created by potrace 1.14, written by Peter Selinger 2001-2017
</metadata>
<g transform="translate(0.000000,512.000000) scale(0.100000,-0.100000)"
fill="#000000" stroke="none">
<path d="M2445 5109 c-149 -29 -321 -112 -478 -230 -223 -169 -489 -487 -636
-763 -68 -129 -160 -351 -176 -425 -2 -9 -10 -45 -18 -81 -33 -140 -37 -264
-12 -359 67 -258 244 -596 425 -809 34 -40 60 -75 59 -77 -5 -4 -180 -41 -231
-49 -76 -12 -109 -43 -101 -95 4 -30 39 -61 69 -61 12 0 111 18 221 40 109 22
214 43 233 46 19 3 53 9 75 13 93 17 218 -9 353 -75 51 -24 118 -52 148 -62
29 -9 54 -19 54 -22 0 -3 -359 -5 -798 -5 -438 1 -812 -2 -831 -6 -40 -9 -76
-34 -105 -73 -24 -31 -30 -115 -16 -201 4 -27 11 -85 14 -127 4 -42 8 -85 10
-95 2 -10 7 -53 11 -96 3 -43 8 -88 10 -100 2 -12 6 -53 10 -90 3 -37 8 -77
10 -87 2 -11 6 -50 9 -87 3 -37 8 -77 10 -88 2 -11 7 -56 10 -100 4 -44 9 -87
11 -95 2 -8 6 -46 10 -85 7 -86 14 -150 20 -190 2 -16 7 -60 11 -98 l6 -67
-28 -1 c-49 -1 -76 -9 -111 -30 -19 -12 -35 -20 -37 -18 -1 2 -46 103 -100
223 -58 131 -100 238 -103 266 -10 83 11 141 114 318 102 174 114 212 79 247
-26 26 -84 24 -107 -3 -32 -40 -191 -322 -211 -374 -25 -67 -34 -170 -19 -238
10 -48 121 -309 237 -558 24 -52 44 -97 44 -101 0 -24 67 -93 112 -115 l52
-26 1815 0 c1791 0 1815 0 1856 20 76 37 100 73 206 316 55 126 106 243 113
259 62 133 74 173 83 257 12 118 -14 191 -151 425 -62 106 -82 133 -107 142
-48 17 -99 -20 -99 -73 0 -7 41 -84 91 -171 105 -182 116 -210 116 -284 1 -67
-6 -86 -113 -332 l-85 -196 -46 24 c-28 14 -64 23 -90 23 -24 0 -42 3 -40 8 3
4 8 33 11 65 3 31 9 83 12 115 4 31 8 68 9 82 7 67 18 167 21 183 1 9 6 54 9
98 4 45 8 89 10 98 1 9 6 45 10 81 4 36 8 79 10 95 2 17 6 55 10 85 7 68 12
115 20 205 3 39 8 81 10 95 2 14 7 49 10 78 10 102 15 148 20 191 10 84 -25
156 -93 190 -35 17 -79 18 -830 17 -436 0 -800 1 -809 5 -10 3 0 10 28 18 24
7 83 33 132 57 134 67 198 83 319 79 57 -1 110 -5 118 -9 8 -3 62 -15 120 -26
58 -10 115 -21 128 -24 13 -3 70 -13 128 -23 115 -19 129 -16 152 31 26 52
-10 96 -88 110 -14 2 -78 14 -142 26 l-118 22 64 77 c197 238 369 568 432 831
53 222 -79 654 -307 1006 -60 92 -140 205 -159 224 -3 3 -30 34 -60 70 -169
201 -367 364 -552 454 -73 35 -188 79 -188 71 0 -3 -12 0 -27 6 -38 14 -209
20 -268 8z m272 -164 c219 -61 472 -251 690 -520 168 -209 329 -494 398 -706
33 -102 53 -189 43 -189 -2 0 -31 13 -64 29 -123 59 -352 124 -544 155 -19 3
-44 7 -55 10 -19 4 -160 21 -250 31 -217 24 -522 24 -750 -1 -82 -8 -237 -29
-280 -38 -20 -3 -76 -14 -125 -23 -124 -22 -333 -86 -435 -134 -37 -17 -69
-29 -71 -27 -2 3 5 40 17 84 63 240 195 503 373 739 82 109 97 125 206 236
307 311 583 426 847 354z m73 -1329 c63 -4 126 -9 140 -11 14 -2 52 -7 85 -10
33 -4 69 -8 80 -10 11 -2 40 -6 64 -9 72 -10 105 -17 111 -22 8 -9 7 -375 -2
-424 -20 -112 -85 -214 -232 -362 -218 -219 -385 -300 -541 -263 -121 29 -276
135 -423 290 -108 114 -157 185 -188 274 -22 61 -24 82 -24 277 l0 211 78 13
c42 7 84 14 92 15 30 4 136 16 165 20 17 2 82 6 145 10 63 4 116 8 117 9 4 3
227 -2 333 -8z m-1080 -198 c0 -102 0 -102 -20 -83 -12 13 -23 46 -31 93 -13
79 -8 91 34 92 15 0 17 -11 17 -102z m1767 92 c11 0 13 -7 9 -27 -3 -16 -9
-46 -12 -67 -11 -72 -34 -109 -46 -73 -3 10 -2 163 1 176 1 2 8 0 17 -3 9 -3
22 -6 31 -6z m-1977 -54 c0 -22 34 -158 45 -181 24 -52 73 -87 139 -101 25 -5
25 -5 30 -47 19 -147 95 -276 259 -443 l79 -82 0 -73 c0 -117 -1 -131 -11
-124 -15 8 -150 10 -203 1 -44 -7 -48 -5 -77 26 -16 18 -46 51 -67 73 -103
112 -215 282 -294 448 -60 125 -130 319 -130 361 0 30 47 66 143 111 71 34 87
39 87 31z m2284 -65 c17 -11 41 -29 54 -41 28 -26 26 -36 -25 -190 -80 -242
-249 -522 -429 -710 l-43 -45 -133 1 -133 2 -1 90 -1 91 85 88 c164 169 250
317 266 460 2 15 4 31 5 35 0 4 9 6 20 5 34 -2 100 35 125 72 24 36 40 82 50
155 4 21 9 42 12 47 5 9 95 -28 148 -60z m-1449 -996 c172 -76 379 -62 537 35
26 16 49 26 49 22 5 -28 3 -70 -4 -86 -11 -23 -166 -95 -269 -125 l-78 -23
-85 26 c-47 14 -130 46 -184 72 l-97 47 0 52 0 53 40 -26 c22 -14 63 -35 91
-47z m1971 -453 c6 -1 10 -14 9 -29 -1 -16 -6 -64 -9 -108 -4 -43 -9 -82 -11
-85 -1 -3 -6 -44 -10 -92 -3 -49 -8 -96 -9 -105 -3 -17 -14 -116 -22 -193 -2
-19 -6 -56 -10 -83 -3 -26 -7 -65 -9 -86 -6 -71 -16 -166 -20 -181 -2 -8 -7
-53 -10 -100 -3 -47 -8 -92 -10 -100 -2 -8 -6 -46 -10 -85 -3 -38 -8 -81 -10
-95 -4 -26 -17 -156 -18 -177 0 -10 -315 -13 -1536 -14 -1630 -1 -1623 -1
-1632 0 -4 1 -10 36 -14 78 -4 43 -8 85 -10 93 -1 8 -6 47 -10 85 -4 39 -8 83
-10 100 -2 16 -7 61 -10 100 -3 38 -8 77 -10 85 -2 8 -7 49 -10 90 -3 41 -8
86 -10 100 -5 27 -12 95 -20 175 -4 45 -7 71 -20 180 -2 17 -6 62 -10 100 -4
39 -8 81 -10 95 -18 118 -26 243 -17 249 9 5 3441 8 3478 3z m59 -1737 l0 -50
-1789 -3 c-1194 -1 -1793 1 -1801 8 -14 12 -9 81 6 91 6 3 815 6 1797 5 l1787
-1 0 -50z"/>
<path d="M2473 1766 c-60 -19 -108 -52 -148 -100 -42 -51 -61 -95 -69 -159 -8
-54 -31 -98 -49 -91 -27 10 -56 73 -67 145 -14 87 -32 116 -77 125 -26 5 -37
1 -57 -19 -15 -15 -26 -38 -26 -52 0 -38 28 -169 46 -211 17 -41 91 -119 123
-129 15 -5 21 -15 21 -36 l0 -30 -62 1 c-107 3 -118 1 -142 -23 -30 -30 -27
-74 7 -103 20 -17 39 -21 93 -22 38 0 77 -1 87 -1 29 -2 20 -37 -13 -51 -35
-15 -91 -76 -115 -127 -22 -46 -49 -196 -41 -227 6 -24 48 -54 71 -51 53 6 68
30 86 132 13 75 33 123 52 123 6 0 23 -24 36 -52 35 -73 126 -162 203 -198
173 -81 368 3 469 203 l30 59 19 -22 c18 -20 31 -68 46 -159 6 -38 34 -80 54
-82 6 -1 16 -2 23 -3 22 -3 55 16 67 39 12 23 11 39 -16 180 -13 70 -80 163
-134 185 -23 9 -30 18 -28 33 3 19 10 21 86 20 67 -1 87 3 106 18 30 23 36 55
19 90 -16 34 -51 45 -140 43 -62 -2 -72 1 -76 17 -6 22 7 38 57 68 68 42 111
139 133 296 5 38 2 47 -21 70 -22 22 -33 26 -59 21 -52 -11 -64 -32 -83 -154
-7 -45 -25 -81 -52 -105 -20 -18 -21 -18 -38 8 -10 15 -19 46 -21 69 -2 22
-17 69 -34 104 -66 135 -223 202 -366 158z m167 -157 c33 -20 60 -46 60 -59 0
-3 -62 -6 -139 -6 l-138 1 15 23 c38 58 139 79 202 41z m96 -234 c51 -33 26
-40 -166 -43 -190 -3 -219 3 -188 34 24 24 69 30 206 28 95 -2 129 -6 148 -19z
m-308 -195 l62 0 0 -215 c0 -118 -3 -215 -6 -215 -24 0 -97 79 -125 135 -29
58 -32 75 -36 186 l-6 122 24 -6 c13 -4 52 -7 87 -7z m379 -111 c-5 -105 -9
-128 -33 -176 -25 -51 -106 -143 -126 -143 -4 0 -8 97 -8 215 l0 214 73 4 c39
1 78 4 86 5 11 2 12 -20 8 -119z"/>
</g>
</svg>
